#Comment line ignore any data following # character 
#Hierarchical Translation and Rotation (.htr) file 
[Header]	
#Header keywords are followed by a single value 
FileType HTR		#Single word string
DataType HTRS		#Translation followed by rotation and scale data
FileVersion 1		#integer
NumSegments 84		#integer
NumFrames 2		#integer
DataFrameRate 30		#integer, data frame rate in this file
EulerRotationOrder ZYX
CalibrationUnits mm
RotationUnits Degrees
GlobalAxisofGravity Y
BoneLengthAxis Y
ScaleFactor 1.00
[SegmentNames&Hierarchy]
#CHILD	PARENT
MASTER GLOBAL
root MASTER
chest root
L_mid_tent01 root
R_mid_tent01 root
spine01 root
Bip01_Neck chest
L_humerus chest
R_humerus chest
weapon_bone chest
Bip01_Head Bip01_Neck
eye_left_bone Bip01_Head
eye_right_bone Bip01_Head
L_forearm L_humerus
L_front_hand L_forearm
L_weapon_bone L_forearm
L_front_hand01_01 L_front_hand
L_front_hand02_01 L_front_hand
L_front_hand03_01 L_front_hand
L_front_hand01_02 L_front_hand01_01
L_front_hand02_02 L_front_hand02_01
L_front_hand03_02 L_front_hand03_01
R_forearm R_humerus
R_front_hand R_forearm
R_weapon_bone R_forearm
R_front_hand01_01 R_front_hand
R_front_hand02_01 R_front_hand
R_front_hand03_01 R_front_hand
R_front_hand01_02 R_front_hand01_01
R_front_hand02_02 R_front_hand02_01
R_front_hand03_02 R_front_hand03_01
null_rope01_connect L_mid_tent01
Rope1_Seg01 null_rope01_connect
Rope1_Seg02 Rope1_Seg01
Rope1_Seg03 Rope1_Seg02
Rope1_Seg04 Rope1_Seg03
Rope1_Seg05 Rope1_Seg04
Rope1_Seg06 Rope1_Seg05
Rope1_Seg07 Rope1_Seg06
Rope1_Seg09 Rope1_Seg07
L_mid_hand01 Rope1_Seg09
L_mid_hand02 Rope1_Seg09
L_mid_hand03 Rope1_Seg09
null_rope02_connect R_mid_tent01
Rope2_Seg01 null_rope02_connect
Rope2_Seg02 Rope2_Seg01
Rope2_Seg03 Rope2_Seg02
Rope2_Seg04 Rope2_Seg03
Rope2_Seg05 Rope2_Seg04
Rope2_Seg06 Rope2_Seg05
Rope2_Seg07 Rope2_Seg06
Rope2_Seg09 Rope2_Seg07
R_mid_hand01 Rope2_Seg09
R_mid_hand02 Rope2_Seg09
R_mid_hand03 Rope2_Seg09
spine02 spine01
spine03 spine02
pelvis spine03
null_rope03_connect pelvis
null_rope04_connect pelvis
Rope3_Seg01 null_rope03_connect
Rope3_Seg02 Rope3_Seg01
Rope3_Seg03 Rope3_Seg02
Rope3_Seg04 Rope3_Seg03
Rope3_Seg05 Rope3_Seg04
Rope3_Seg06 Rope3_Seg05
Rope3_Seg07 Rope3_Seg06
Rope3_Seg08 Rope3_Seg07
Rope3_Seg09 Rope3_Seg08
R_rear_hand01 Rope3_Seg09
R_rear_hand02 Rope3_Seg09
R_rear_hand03 Rope3_Seg09
Rope4_Seg01 null_rope04_connect
Rope4_Seg02 Rope4_Seg01
Rope4_Seg03 Rope4_Seg02
Rope4_Seg04 Rope4_Seg03
Rope4_Seg05 Rope4_Seg04
Rope4_Seg06 Rope4_Seg05
Rope4_Seg07 Rope4_Seg06
Rope4_Seg08 Rope4_Seg07
Rope4_Seg09 Rope4_Seg08
L_rear_hand01 Rope4_Seg09
L_rear_hand02 Rope4_Seg09
L_rear_hand03 Rope4_Seg09
[BasePosition]
#SegmentName Tx, Ty, Tz, Rx, Ry, Rz, BoneLength
MASTER 0.000000 0.000000 0.000000 -90.000000 0.000000 0.000000 10.000000 
root 0.000000 0.000000 0.000000 0.000000 0.000000 0.000000 10.000000 
chest 0.000000 0.000000 0.000000 0.000000 0.000000 0.000000 10.000000 
L_mid_tent01 0.000000 0.000000 0.000000 0.000000 0.000000 0.000000 10.000000 
R_mid_tent01 0.000000 0.000000 0.000000 0.000000 0.000000 0.000000 10.000000 
spine01 0.000000 0.000000 0.000000 0.000000 0.000000 0.000000 10.000000 
Bip01_Neck 0.000000 0.000000 0.000000 0.000000 0.000000 0.000000 10.000000 
L_humerus 0.000000 0.000000 0.000000 0.000000 0.000000 0.000000 10.000000 
R_humerus 0.000000 0.000000 0.000000 0.000000 0.000000 0.000000 10.000000 
weapon_bone 0.000000 0.000000 0.000000 0.000000 0.000000 0.000000 10.000000 
Bip01_Head 0.000000 0.000000 0.000000 0.000000 0.000000 0.000000 10.000000 
eye_left_bone 0.000000 0.000000 0.000000 0.000000 0.000000 0.000000 10.000000 
eye_right_bone 0.000000 0.000000 0.000000 0.000000 0.000000 0.000000 10.000000 
L_forearm 0.000000 0.000000 0.000000 0.000000 0.000000 0.000000 10.000000 
L_front_hand 0.000000 0.000000 0.000000 0.000000 0.000000 0.000000 10.000000 
L_weapon_bone 0.000000 0.000000 0.000000 0.000000 0.000000 0.000000 10.000000 
L_front_hand01_01 0.000000 0.000000 0.000000 0.000000 0.000000 0.000000 10.000000 
L_front_hand02_01 0.000000 0.000000 0.000000 0.000000 0.000000 0.000000 10.000000 
L_front_hand03_01 0.000000 0.000000 0.000000 0.000000 0.000000 0.000000 10.000000 
L_front_hand01_02 0.000000 0.000000 0.000000 0.000000 0.000000 0.000000 10.000000 
L_front_hand02_02 0.000000 0.000000 0.000000 0.000000 0.000000 0.000000 10.000000 
L_front_hand03_02 0.000000 0.000000 0.000000 0.000000 0.000000 0.000000 10.000000 
R_forearm 0.000000 0.000000 0.000000 0.000000 0.000000 0.000000 10.000000 
R_front_hand 0.000000 0.000000 0.000000 0.000000 0.000000 0.000000 10.000000 
R_weapon_bone 0.000000 0.000000 0.000000 0.000000 0.000000 0.000000 10.000000 
R_front_hand01_01 0.000000 0.000000 0.000000 0.000000 0.000000 0.000000 10.000000 
R_front_hand02_01 0.000000 0.000000 0.000000 0.000000 0.000000 0.000000 10.000000 
R_front_hand03_01 0.000000 0.000000 0.000000 0.000000 0.000000 0.000000 10.000000 
R_front_hand01_02 0.000000 0.000000 0.000000 0.000000 0.000000 0.000000 10.000000 
R_front_hand02_02 0.000000 0.000000 0.000000 0.000000 0.000000 0.000000 10.000000 
R_front_hand03_02 0.000000 0.000000 0.000000 0.000000 0.000000 0.000000 10.000000 
null_rope01_connect 0.000000 0.000000 0.000000 0.000000 0.000000 0.000000 10.000000 
Rope1_Seg01 0.000000 0.000000 0.000000 0.000000 0.000000 0.000000 10.000000 
Rope1_Seg02 0.000000 0.000000 0.000000 0.000000 0.000000 0.000000 10.000000 
Rope1_Seg03 0.000000 0.000000 0.000000 0.000000 0.000000 0.000000 10.000000 
Rope1_Seg04 0.000000 0.000000 0.000000 0.000000 0.000000 0.000000 10.000000 
Rope1_Seg05 0.000000 0.000000 0.000000 0.000000 0.000000 0.000000 10.000000 
Rope1_Seg06 0.000000 0.000000 0.000000 0.000000 0.000000 0.000000 10.000000 
Rope1_Seg07 0.000000 0.000000 0.000000 0.000000 0.000000 0.000000 10.000000 
Rope1_Seg09 0.000000 0.000000 0.000000 0.000000 0.000000 0.000000 10.000000 
L_mid_hand01 0.000000 0.000000 0.000000 0.000000 0.000000 0.000000 10.000000 
L_mid_hand02 0.000000 0.000000 0.000000 0.000000 0.000000 0.000000 10.000000 
L_mid_hand03 0.000000 0.000000 0.000000 0.000000 0.000000 0.000000 10.000000 
null_rope02_connect 0.000000 0.000000 0.000000 0.000000 0.000000 0.000000 10.000000 
Rope2_Seg01 0.000000 0.000000 0.000000 0.000000 0.000000 0.000000 10.000000 
Rope2_Seg02 0.000000 0.000000 0.000000 0.000000 0.000000 0.000000 10.000000 
Rope2_Seg03 0.000000 0.000000 0.000000 0.000000 0.000000 0.000000 10.000000 
Rope2_Seg04 0.000000 0.000000 0.000000 0.000000 0.000000 0.000000 10.000000 
Rope2_Seg05 0.000000 0.000000 0.000000 0.000000 0.000000 0.000000 10.000000 
Rope2_Seg06 0.000000 0.000000 0.000000 0.000000 0.000000 0.000000 10.000000 
Rope2_Seg07 0.000000 0.000000 0.000000 0.000000 0.000000 0.000000 10.000000 
Rope2_Seg09 0.000000 0.000000 0.000000 0.000000 0.000000 0.000000 10.000000 
R_mid_hand01 0.000000 0.000000 0.000000 0.000000 0.000000 0.000000 10.000000 
R_mid_hand02 0.000000 0.000000 0.000000 0.000000 0.000000 0.000000 10.000000 
R_mid_hand03 0.000000 0.000000 0.000000 0.000000 0.000000 0.000000 10.000000 
spine02 0.000000 0.000000 0.000000 0.000000 0.000000 0.000000 10.000000 
spine03 0.000000 0.000000 0.000000 0.000000 0.000000 0.000000 10.000000 
pelvis 0.000000 0.000000 0.000000 0.000000 0.000000 0.000000 10.000000 
null_rope03_connect 0.000000 0.000000 0.000000 0.000000 0.000000 0.000000 10.000000 
null_rope04_connect 0.000000 0.000000 0.000000 0.000000 0.000000 0.000000 10.000000 
Rope3_Seg01 0.000000 0.000000 0.000000 0.000000 0.000000 0.000000 10.000000 
Rope3_Seg02 0.000000 0.000000 0.000000 0.000000 0.000000 0.000000 10.000000 
Rope3_Seg03 0.000000 0.000000 0.000000 0.000000 0.000000 0.000000 10.000000 
Rope3_Seg04 0.000000 0.000000 0.000000 0.000000 0.000000 0.000000 10.000000 
Rope3_Seg05 0.000000 0.000000 0.000000 0.000000 0.000000 0.000000 10.000000 
Rope3_Seg06 0.000000 0.000000 0.000000 0.000000 0.000000 0.000000 10.000000 
Rope3_Seg07 0.000000 0.000000 0.000000 0.000000 0.000000 0.000000 10.000000 
Rope3_Seg08 0.000000 0.000000 0.000000 0.000000 0.000000 0.000000 10.000000 
Rope3_Seg09 0.000000 0.000000 0.000000 0.000000 0.000000 0.000000 10.000000 
R_rear_hand01 0.000000 0.000000 0.000000 0.000000 0.000000 0.000000 10.000000 
R_rear_hand02 0.000000 0.000000 0.000000 0.000000 0.000000 0.000000 10.000000 
R_rear_hand03 0.000000 0.000000 0.000000 0.000000 0.000000 0.000000 10.000000 
Rope4_Seg01 0.000000 0.000000 0.000000 0.000000 0.000000 0.000000 10.000000 
Rope4_Seg02 0.000000 0.000000 0.000000 0.000000 0.000000 0.000000 10.000000 
Rope4_Seg03 0.000000 0.000000 0.000000 0.000000 0.000000 0.000000 10.000000 
Rope4_Seg04 0.000000 0.000000 0.000000 0.000000 0.000000 0.000000 10.000000 
Rope4_Seg05 0.000000 0.000000 0.000000 0.000000 0.000000 0.000000 10.000000 
Rope4_Seg06 0.000000 0.000000 0.000000 0.000000 0.000000 0.000000 10.000000 
Rope4_Seg07 0.000000 0.000000 0.000000 0.000000 0.000000 0.000000 10.000000 
Rope4_Seg08 0.000000 0.000000 0.000000 0.000000 0.000000 0.000000 10.000000 
Rope4_Seg09 0.000000 0.000000 0.000000 0.000000 0.000000 0.000000 10.000000 
L_rear_hand01 0.000000 0.000000 0.000000 0.000000 0.000000 0.000000 10.000000 
L_rear_hand02 0.000000 0.000000 0.000000 0.000000 0.000000 0.000000 10.000000 
L_rear_hand03 0.000000 0.000000 0.000000 0.000000 0.000000 0.000000 10.000000 
#Beginning of Data. Separated by tabs
#Fr	Tx	Ty	Tz	Rx	Ry	Rz	SF
[MASTER]
34 -115.823097 4011.737793 37.732620 0.001660 0.001660 0.001660 4013.586670
35 -107.550110 4327.113770 35.037434 0.001660 0.001660 0.001660 4328.591797
[root]
34 2.696667 444.668884 1104.892578 -96.044930 -35.937122 -87.060921 1191.018677
35 5.252609 403.015747 1092.790771 -95.822632 -34.679302 -87.182388 1164.749268
[chest]
34 -84.512650 -34.090519 0.000000 -5.085019 -22.524490 141.396103 91.129311
35 -84.512650 -34.090519 0.000000 1.691224 -18.423542 131.331711 91.129311
[L_mid_tent01]
34 27.298731 22.179001 -249.918686 -8.266340 32.682663 52.725574 252.381622
35 27.298721 22.178997 -249.918686 -9.755733 31.526199 49.472675 252.381622
[R_mid_tent01]
34 23.228794 24.509907 226.238495 178.327911 -29.496267 51.715504 228.744751
35 23.228794 24.509907 226.238495 179.750427 -28.932133 49.535599 228.744751
[spine01]
34 -0.361383 -0.195265 0.000000 -0.000001 -0.000007 22.052340 0.410763
35 -0.361383 -0.195265 0.000000 -0.000001 -0.000007 22.052340 0.410763
[Bip01_Neck]
34 165.484543 71.581718 0.000119 176.643677 -1.657967 43.431911 180.302734
35 165.484543 71.581718 0.000119 176.643677 -1.657967 43.431911 180.302734
[L_humerus]
34 -13.983130 -135.272980 -120.471481 114.727753 83.546448 -154.453262 181.680161
35 -13.983130 -135.272980 -120.471481 89.998863 84.673584 -179.313385 181.680161
[R_humerus]
34 -13.983309 -135.273102 125.287651 -175.446259 -82.809692 -89.578773 184.909012
35 -13.983309 -135.273102 125.287651 178.737762 -85.615456 -83.746826 184.909012
[weapon_bone]
34 235.964890 -300.705902 0.000000 0.000000 -89.951546 -128.212341 382.234833
35 235.964890 -300.705902 0.000000 0.000000 -89.951546 -128.212341 382.234833
[Bip01_Head]
34 217.316284 193.779907 33.482948 32.574516 13.922997 -44.059910 293.083832
35 203.285828 162.408447 31.616497 23.806807 3.341907 -49.228695 262.109192
[eye_left_bone]
34 -24.626970 125.451866 -64.772606 0.000000 -90.000000 -99.840431 143.318359
35 -24.626970 125.451866 -64.772606 0.000000 -90.000000 -99.840431 143.318359
[eye_right_bone]
34 -24.626970 125.451866 64.327362 0.000000 -89.965736 80.156380 143.117676
35 -24.626970 125.451866 64.327362 0.000000 -89.965736 80.156380 143.117676
[L_forearm]
34 322.776093 0.000000 -0.000119 0.000243 -0.002335 -101.877045 322.776093
35 322.776093 0.000000 -0.000119 0.000222 -0.002337 -100.834969 322.776093
[L_front_hand]
34 241.149185 -0.042021 -3.300071 0.836591 -1.835726 -27.423458 241.171753
35 241.149185 -0.042021 -3.300071 0.836590 -1.835725 -27.423458 241.171753
[L_weapon_bone]
34 156.183838 0.000000 0.000000 0.000014 0.000007 0.000001 156.183838
35 156.183838 0.000000 0.000000 0.000014 0.000007 0.000001 156.183838
[L_front_hand01_01]
34 86.095154 20.947098 -0.655860 -0.366594 -0.477154 75.385574 88.609184
35 86.095154 20.947098 -0.655860 -0.366594 -0.477154 75.385574 88.609184
[L_front_hand02_01]
34 86.935165 -11.437475 24.513514 154.399796 -59.883835 -61.369587 91.046425
35 86.935165 -11.437475 24.513514 154.399796 -59.883835 -61.369587 91.046425
[L_front_hand03_01]
34 86.637497 -14.123976 -20.424902 -153.913849 58.118130 -62.702866 90.126129
35 86.637497 -14.123976 -20.424902 -153.913849 58.118122 -62.702866 90.126129
[L_front_hand01_02]
34 71.020905 -0.000179 0.000030 0.000334 -0.002323 -106.379684 71.020905
35 71.020905 -0.000179 0.000030 0.000334 -0.002323 -106.379707 71.020905
[L_front_hand02_02]
34 71.020927 -0.000119 0.000060 0.000334 -0.002323 -106.379684 71.020927
35 71.020927 -0.000119 0.000060 0.000334 -0.002323 -106.379707 71.020927
[L_front_hand03_02]
34 71.020905 -0.000060 0.000060 0.000334 -0.002323 -106.379684 71.020905
35 71.020905 -0.000060 0.000060 0.000334 -0.002323 -106.379707 71.020905
[R_forearm]
34 322.776428 -0.000060 0.000030 0.210976 0.035020 -100.732033 322.776428
35 322.776428 -0.000060 0.000030 0.211300 0.033012 -99.642433 322.776428
[R_front_hand]
34 238.847015 -0.006795 2.210259 42.936222 -10.646152 -26.312963 238.857239
35 238.847015 -0.006795 2.210259 42.936222 -10.646152 -26.312963 238.857239
[R_weapon_bone]
34 155.664093 0.002503 -0.000030 0.003487 0.001180 -90.988930 155.664078
35 155.664093 0.002503 -0.000030 0.003487 0.001180 -90.988930 155.664078
[R_front_hand01_01]
34 87.624611 14.231146 22.918642 -154.633499 -59.950619 61.746044 91.683487
35 87.624611 14.231146 22.918642 -154.633499 -59.950619 61.746044 91.683487
[R_front_hand02_01]
34 89.356956 14.367283 -19.491137 154.602661 58.302849 63.744389 92.579636
35 89.356956 14.367283 -19.491137 154.602661 58.302849 63.744389 92.579636
[R_front_hand03_01]
34 87.286232 -22.307278 -0.143439 0.162155 -0.423168 -75.767906 90.091743
35 87.286232 -22.307278 -0.143439 0.162155 -0.423168 -75.767921 90.091743
[R_front_hand01_02]
34 71.020905 0.000060 0.000119 0.002323 -0.000334 106.381714 71.020905
35 71.020905 0.000060 0.000119 0.002323 -0.000334 106.381714 71.020905
[R_front_hand02_02]
34 71.020844 -0.000030 -0.000119 0.002323 -0.000334 106.381714 71.020836
35 71.020844 -0.000030 -0.000119 0.002323 -0.000334 106.381714 71.020836
[R_front_hand03_02]
34 71.020905 0.000000 0.000030 0.002323 -0.000334 106.381714 71.020905
35 71.020905 0.000000 0.000030 0.002323 -0.000334 106.381714 71.020905
[null_rope01_connect]
34 328.732483 0.000000 -0.000238 -126.951965 -53.125267 -160.976013 328.732483
35 328.732483 0.000000 -0.000238 -128.129196 -53.948967 -158.195862 328.732483
[Rope1_Seg01]
34 -0.000015 -0.000868 0.000107 -14.006769 26.979277 163.414215 0.000875
35 -0.000017 -0.000894 0.000110 -13.001767 30.329954 165.499802 0.000901
[Rope1_Seg02]
34 139.999863 -0.000179 0.000000 2.283000 2.199071 20.433023 139.999863
35 139.999863 -0.000179 0.000000 1.880915 0.642978 19.767054 139.999863
[Rope1_Seg03]
34 139.999924 0.000060 -0.000060 0.281021 -4.244511 7.306029 139.999924
35 139.999924 0.000060 -0.000060 -0.140912 -4.592670 5.528327 139.999924
[Rope1_Seg04]
34 139.999924 -0.000060 -0.000119 19.496672 13.793377 29.687284 139.999924
35 139.999924 -0.000060 -0.000119 22.189360 10.990202 34.719437 139.999924
[Rope1_Seg05]
34 139.999832 0.000119 -0.000060 33.554752 31.350060 35.444080 139.999832
35 139.999832 0.000119 -0.000060 36.848846 26.764202 35.477169 139.999832
[Rope1_Seg06]
34 139.999954 0.000119 -0.000060 4.253001 10.799932 4.416393 139.999954
35 139.999954 0.000119 -0.000060 5.083042 9.286963 3.862288 139.999954
[Rope1_Seg07]
34 139.999985 0.000060 0.000000 1.491294 5.056872 1.666720 139.999985
35 139.999985 0.000060 0.000000 1.989103 4.519010 1.441508 139.999985
[Rope1_Seg09]
34 121.602913 0.000119 -0.000089 -89.793175 -1.359789 0.847147 121.602913
35 121.602913 0.000119 -0.000089 -89.793175 -1.359789 0.847147 121.602913
[L_mid_hand01]
34 103.859421 1.038730 8.195221 130.544373 -67.584534 -38.866943 104.187431
35 103.859421 1.038730 8.195221 130.544373 -67.584534 -38.866943 104.187431
[L_mid_hand02]
34 105.572853 -4.139662 -10.864139 -168.923172 43.409309 -73.498894 106.211075
35 105.572853 -4.139662 -10.864139 -168.923172 43.409309 -73.498886 106.211075
[L_mid_hand03]
34 104.641464 17.579376 -3.913581 -6.012626 17.808172 74.893661 106.179977
35 104.641464 17.579376 -3.913581 -6.012628 17.808178 74.893669 106.179977
[null_rope02_connect]
34 328.732849 0.000179 -0.000119 -93.616829 61.756134 12.809617 328.732849
35 328.732849 0.000179 -0.000119 -95.606674 62.395611 10.226980 328.732849
[Rope2_Seg01]
34 0.000065 0.000045 0.000000 77.275970 29.005030 9.692883 0.000079
35 0.000066 0.000042 0.000000 63.217384 35.553753 -5.640439 0.000078
[Rope2_Seg02]
34 139.999741 -0.000060 -0.000119 -2.605294 -5.522571 -5.248322 139.999756
35 139.999741 -0.000060 -0.000119 -4.069131 -6.922128 -6.300037 139.999756
[Rope2_Seg03]
34 140.000107 0.000030 0.000000 -4.535553 -7.918379 -8.355105 140.000107
35 140.000107 0.000030 0.000000 -6.155211 -8.219672 -8.751792 140.000107
[Rope2_Seg04]
34 139.999802 0.000000 -0.000060 -8.540367 -11.148301 -15.593271 139.999802
35 139.999802 0.000000 -0.000060 -8.098656 -8.196487 -11.068620 139.999802
[Rope2_Seg05]
34 139.999985 -0.000060 0.000119 -9.418488 -9.181613 -17.160500 139.999985
35 139.999985 -0.000060 0.000119 -7.583669 -5.372839 -10.664598 139.999985
[Rope2_Seg06]
34 139.999893 -0.000030 -0.000119 -6.456299 -7.356644 -10.185612 139.999893
35 139.999893 -0.000030 -0.000119 -7.479511 -3.845717 -11.709902 139.999893
[Rope2_Seg07]
34 139.999893 0.000060 -0.000060 -7.125821 -6.163862 -11.450704 139.999893
35 139.999893 0.000060 -0.000060 -6.129755 -2.092311 -11.099293 139.999893
[Rope2_Seg09]
34 121.338966 0.000089 -0.000060 33.793236 -1.359788 -0.847141 121.338966
35 121.338966 0.000089 -0.000060 33.793236 -1.359788 -0.847141 121.338966
[R_mid_hand01]
34 104.680779 11.144459 -10.335981 -16.212063 45.237240 70.462852 105.778534
35 104.680779 11.144459 -10.335981 -16.212063 45.237240 70.462845 105.778534
[R_mid_hand02]
34 104.070427 2.443552 8.231699 49.067368 -67.749771 39.286453 104.424065
35 104.070427 2.443552 8.231699 49.067368 -67.749771 39.286453 104.424065
[R_mid_hand03]
34 106.028137 -11.221827 -5.996406 -177.101105 15.551026 -76.585571 106.788818
35 106.028137 -11.221827 -5.996406 -177.101105 15.551026 -76.585571 106.788818
[spine02]
34 129.756927 0.001550 0.000119 0.436222 -4.036603 -14.029026 129.756927
35 129.756927 0.001550 0.000119 0.427784 -4.037566 -13.905744 129.756927
[spine03]
34 78.613930 0.081635 -4.899018 1.943307 3.811211 17.164633 78.766472
35 78.613930 0.081635 -4.899018 1.937971 3.812878 17.092430 78.766472
[pelvis]
34 169.435242 0.051022 0.000000 -0.065127 -0.179136 15.496953 169.435257
35 169.435242 0.051022 0.000000 -0.064067 -0.179334 15.341387 169.435257
[null_rope03_connect]
34 -1.257226 -2.466202 137.391083 -179.434723 -86.171928 -95.192581 137.418976
35 -1.257226 -2.466202 137.391083 179.326584 -86.282005 -95.103897 137.418976
[null_rope04_connect]
34 -1.259640 -2.480268 -137.844437 -179.434723 -86.171928 -95.192581 137.872513
35 -1.259640 -2.480268 -137.844437 179.326584 -86.282005 -95.103897 137.872513
[Rope3_Seg01]
34 0.000023 -0.000440 0.000000 -88.733231 -60.450947 45.234745 0.000440
35 0.000021 -0.000452 0.000000 -79.308189 -64.913963 35.580746 0.000453
[Rope3_Seg02]
34 139.999924 -0.000119 0.000060 8.348219 48.575127 -13.544386 139.999924
35 139.999924 -0.000119 0.000060 5.614022 46.950405 -14.518976 139.999924
[Rope3_Seg03]
34 139.999924 -0.000119 0.000119 8.639388 27.860168 -17.785759 139.999924
35 139.999924 -0.000119 0.000119 9.312661 31.275129 -14.730330 139.999924
[Rope3_Seg04]
34 139.999924 0.000119 0.000000 4.157157 11.226504 -7.377922 139.999924
35 139.999924 0.000119 0.000000 3.538134 7.850640 -7.916072 139.999924
[Rope3_Seg05]
34 139.999924 -0.000238 0.000060 6.854276 22.476185 -13.511485 139.999924
35 139.999924 -0.000238 0.000060 2.831031 6.382252 -12.207041 139.999924
[Rope3_Seg06]
34 139.999893 -0.000119 -0.000060 5.404865 20.485285 -17.816107 139.999893
35 139.999893 -0.000119 -0.000060 1.499269 6.964814 -14.380194 139.999893
[Rope3_Seg07]
34 139.999771 0.000060 -0.000119 2.635960 8.924739 -10.456479 139.999771
35 139.999771 0.000060 -0.000119 0.074473 5.514819 -11.675554 139.999771
[Rope3_Seg08]
34 139.999985 -0.000060 0.000000 1.430951 4.186090 -5.491498 139.999985
35 139.999985 -0.000060 0.000000 -0.129031 3.046184 -6.585483 139.999985
[Rope3_Seg09]
34 90.185997 -0.000179 -0.000060 89.793228 -1.359877 -0.847183 90.185997
35 90.185997 -0.000179 -0.000060 89.793228 -1.359877 -0.847183 90.185997
[R_rear_hand01]
34 103.366196 -6.073594 -10.757982 -177.714203 24.565960 -73.910950 104.101845
35 103.366196 -6.073594 -10.757982 -177.714203 24.565960 -73.910950 104.101845
[R_rear_hand02]
34 100.509819 12.039542 -7.992327 -12.874829 36.868488 72.167213 101.543350
35 100.509819 12.039542 -7.992327 -12.874829 36.868488 72.167213 101.543350
[R_rear_hand03]
34 101.539970 5.215704 5.435467 71.484634 -71.816666 21.513842 101.819031
35 101.539970 5.215704 5.435467 71.484619 -71.816643 21.513803 101.819031
[Rope4_Seg01]
34 -0.000012 -0.000023 -0.000153 -19.862673 -37.372807 163.548523 0.000155
35 -0.000012 -0.000021 -0.000153 -30.671768 -37.238163 172.614105 0.000155
[Rope4_Seg02]
34 139.999985 0.000060 0.000119 -13.258612 10.250158 19.412758 139.999985
35 139.999985 0.000060 0.000119 -13.840723 8.815341 19.592228 139.999985
[Rope4_Seg03]
34 139.999924 0.000000 -0.000238 -6.154416 10.214519 8.650173 139.999924
35 139.999924 0.000000 -0.000238 -5.124053 12.879005 9.364567 139.999924
[Rope4_Seg04]
34 139.999985 0.000000 0.000119 -40.503174 -6.312716 19.632797 139.999985
35 139.999985 0.000000 0.000119 -40.115871 -14.236696 20.271835 139.999985
[Rope4_Seg05]
34 139.999802 -0.000060 -0.000119 -25.390411 -36.456558 14.451931 139.999802
35 139.999802 -0.000060 -0.000119 -10.789680 -35.420937 1.897939 139.999802
[Rope4_Seg06]
34 139.999924 0.000000 0.000060 -2.023877 -14.883747 0.041581 139.999924
35 139.999924 0.000000 0.000060 -0.807066 -10.931166 -0.790586 139.999924
[Rope4_Seg07]
34 139.999802 0.000000 0.000000 -0.320643 -6.882171 -0.078151 139.999802
35 139.999802 0.000000 0.000000 -0.084326 -5.485507 -0.375553 139.999802
[Rope4_Seg08]
34 139.999924 0.000000 0.000119 -1.564971 -3.620375 -0.062694 139.999924
35 139.999924 0.000000 0.000119 -1.501821 -2.983962 -0.211561 139.999924
[Rope4_Seg09]
34 90.185791 0.000060 0.000060 -135.617828 2.228885 0.850567 90.185791
35 90.185791 0.000060 0.000060 -135.617828 2.228885 0.850567 90.185791
[L_rear_hand01]
34 101.696655 -8.392275 -7.654577 -12.874829 -36.868488 107.832764 102.329041
35 101.696655 -8.392275 -7.654577 -12.874829 -36.868488 107.832764 102.329041
[L_rear_hand02]
34 102.726799 -1.568258 5.773216 71.484581 71.816612 158.486160 102.900848
35 102.726799 -1.568258 5.773216 71.484627 71.816643 158.486160 102.900848
[L_rear_hand03]
34 104.552910 9.721220 -10.420293 -177.714203 -24.565960 -106.089035 105.519653
35 104.552910 9.721220 -10.420293 -177.714203 -24.565960 -106.089035 105.519653
